<?xml version="1.0" encoding="UTF-8"?>
<svg id="Layer_1" data-name="Layer 1" xmlns="http://www.w3.org/2000/svg" xmlns:xlink="http://www.w3.org/1999/xlink" viewBox="0 0 85.45 38.98">
  <defs>
    <style>
      .cls-1, .cls-2, .cls-3 {
        stroke-width: 0px;
      }

      .cls-1, .cls-4, .cls-5 {
        fill: #ffd1e3;
      }

      .cls-2 {
        fill: #451355;
        mix-blend-mode: lighten;
        opacity: .85;
      }

      .cls-4 {
        stroke-width: .75px;
      }

      .cls-4, .cls-5 {
        stroke: #ffd1e3;
        stroke-miterlimit: 10;
      }

      .cls-3 {
        fill: none;
      }

      .cls-5 {
        stroke-width: .25px;
      }
    </style>
    <symbol id="Button" viewBox="0 0 85.45 38.98">
      <g>
        <path class="cls-1" d="M80.11,0H5.34C2.39,0,0,3.17,0,7.09v24.8c0,3.91,2.39,7.09,5.34,7.09h74.77c2.95,0,5.34-3.17,5.34-7.09V7.09c0-3.91-2.39-7.09-5.34-7.09ZM84.11,31.89c0,2.94-1.79,5.32-4,5.32H5.34c-2.21,0-4.01-2.38-4.01-5.32V7.09C1.34,4.15,3.13,1.77,5.34,1.77h74.77c2.21,0,4,2.38,4,5.32v24.8Z"/>
        <path class="cls-2" d="M80.11,1.77H5.34C3.13,1.77,1.34,4.15,1.34,7.09v24.8c0,2.93,1.79,5.31,4.01,5.32h74.77c2.21,0,4-2.38,4-5.32V7.09c0-2.93-1.79-5.32-4-5.32Z"/>
        <g>
          <path class="cls-1" d="M66.46,8.92c-2.52.23-3.39-.16-7.11,2.07-1.86,1.12-2.99,3.43-3.52,5.47-.29,1.14-.18,2.35.12,3.5.71,2.72,3.9,5.89,4.82,6.52,0,0,3.39,1.96,5.76,1.78,2.59-.2,5.65-3.17,5.65-3.17-4.43.54-7.48-1.71-9.72-4.52-1.44-1.8-.83-4.47.02-6.52s2.44-3.78,4.31-5.09"/>
          <path class="cls-1" d="M66.46,8.55c-1.07.09-2.15.08-3.21.3-1.45.31-2.85,1.04-4.09,1.82-2.59,1.63-4.22,5.29-3.79,8.3s2.46,5.5,4.62,7.37c1.48,1.28,3.8,2.12,5.71,2.29,2.54.23,5.01-1.59,6.75-3.27.22-.21.07-.68-.27-.64-3.77.4-7.6-1.43-9.64-4.69-1.09-1.75-.46-4.09.29-5.85.86-2.02,2.38-3.64,4.15-4.9.39-.28.02-.93-.38-.65-1.89,1.35-3.52,3.06-4.45,5.22-.79,1.84-1.38,4.14-.53,6.06.77,1.73,2.62,3.28,4.21,4.24,1.92,1.15,4.11,1.55,6.33,1.31l-.27-.64c-1.35,1.3-3.15,2.68-5.02,3.01s-4.35-.64-5.93-1.67c-.79-.51-1.47-1.31-2.08-2.01-.95-1.09-1.87-2.32-2.39-3.69-1.1-2.93.02-6.73,2.45-8.72,1.18-.97,2.83-1.77,4.32-2.12,1.04-.25,2.12-.22,3.18-.31.48-.04.48-.79,0-.75h0Z"/>
        </g>
        <circle class="cls-5" cx="21.58" cy="18.6" r="7.14"/>
        <line class="cls-3" x1="36.98" y1="19.49" x2="47.45" y2="19.49"/>
        <line class="cls-3" x1="45.02" y1="18.02" x2="47.45" y2="19.87"/>
        <g>
          <line class="cls-4" x1="46.15" y1="21.56" x2="48.13" y2="23.61"/>
          <line class="cls-4" x1="38.68" y1="23.57" x2="48.13" y2="23.51"/>
          <line class="cls-4" x1="46.4" y1="25.55" x2="48.13" y2="23.22"/>
        </g>
        <path class="cls-1" d="M21.51,9.41c.97,0,.97-1.5,0-1.5s-.97,1.5,0,1.5h0Z"/>
        <path class="cls-1" d="M21.47,29.2c.97,0,.97-1.5,0-1.5s-.97,1.5,0,1.5h0Z"/>
        <path class="cls-1" d="M31.47,19.28c.97,0,.97-1.5,0-1.5s-.97,1.5,0,1.5h0Z"/>
        <path class="cls-1" d="M11.72,19.75c.97,0,.97-1.5,0-1.5s-.97,1.5,0,1.5h0Z"/>
        <path class="cls-1" d="M28.66,12.73c.97,0,.97-1.5,0-1.5s-.97,1.5,0,1.5h0Z"/>
        <path class="cls-1" d="M14.7,26.3c.97,0,.97-1.5,0-1.5s-.97,1.5,0,1.5h0Z"/>
        <path class="cls-1" d="M28.79,26.35c.97,0,.97-1.5,0-1.5s-.97,1.5,0,1.5h0Z"/>
        <path class="cls-1" d="M14.23,12.81c.97,0,.97-1.5,0-1.5s-.97,1.5,0,1.5h0Z"/>
        <g>
          <line class="cls-4" x1="40.66" y1="16.05" x2="38.68" y2="14.01"/>
          <line class="cls-4" x1="48.13" y1="14.04" x2="38.68" y2="14.11"/>
          <line class="cls-4" x1="40.4" y1="12.06" x2="38.68" y2="14.39"/>
        </g>
      </g>
    </symbol>
  </defs>
  <use width="85.45" height="38.98" xlink:href="#Button"/>
</svg>