<?xml version="1.0" encoding="utf-8"?>
<svg viewBox="246.42 67.1594 233.2591 231.8478" xmlns="http://www.w3.org/2000/svg">
  <path style="fill-rule:evenodd;clip-rule:evenodd;fill:#0F0B0D;" d="M349.043,67.259c0.35,0.14,0.444,0.385,0.782,2.043 c0.152,0.77,0.49,2.393,0.747,3.618c0.852,4.108,1.039,6.163,0.724,7.995c-0.233,1.412-0.163,2.614,0.268,4.388 c0.607,2.439,0.77,3.466,0.77,4.657c0,2.288-0.397,4.062-1.459,6.478c-0.934,2.148-1.517,3.828-1.751,5.054 c-0.198,1.074-0.759,5.696-1.05,8.544c-0.093,1.027-0.268,2.323-0.362,2.883c-0.152,0.84-0.175,1.646-0.128,4.377 c0.047,2.906,0.093,3.618,0.362,5.287c0.28,1.716,0.327,2.404,0.409,6.303c0.093,3.933,0.117,4.447,0.327,5.019 c0.514,1.401,1.459,3.163,2.323,4.33c2.253,3.023,4.459,6.489,7.762,12.185c1.307,2.264,6.034,9.454,7.388,11.263 c0.467,0.607,1.576,2.078,2.486,3.268c0.899,1.19,2.148,2.941,2.778,3.91c0.63,0.957,2.159,3.268,3.385,5.135 c3.887,5.859,5.871,8.905,7.621,11.672c0.934,1.471,2.463,3.84,3.408,5.252c2.848,4.283,3.817,5.976,7.295,12.78 c3.221,6.291,5.509,10.469,6.723,12.267c1.354,2.007,3.653,4.272,5.731,5.649c0.537,0.35,0.712,0.409,0.84,0.303 s0.315-0.105,0.852,0.035c0.373,0.093,1.984,0.385,3.595,0.654c6.945,1.12,10.516,1.856,14.298,2.93 c4.89,1.389,10.084,2.171,16.165,2.439c1.541,0.07,3.618,0.175,4.61,0.233c2.778,0.175,5.299,0.14,8.182-0.117 c3.221-0.28,4.47-0.595,6.618-1.681c2.521-1.272,7.376-5.17,9.08-7.283c1.914-2.393,3.035-3.326,4.517-3.782 c1.552-0.467,3.023-0.163,4.225,0.875c1.319,1.132,1.459,3.198,0.467,6.664c-0.7,2.416-1.459,3.677-3.011,4.96 c-2.498,2.078-3.186,2.673-4.517,3.968c-2.486,2.416-6.804,5.579-9.816,7.178c-2.218,1.179-5.556,1.914-9.092,2.019 c-2.778,0.082-7.61-0.128-9.921-0.432c-0.992-0.128-3.093-0.292-4.669-0.35c-1.576-0.07-3.49-0.198-4.26-0.292 c-1.494-0.198-1.891-0.28-6.128-1.272c-5.03-1.179-6.022-1.319-12.372-1.809c-0.864-0.07-2.007-0.233-2.544-0.362 c-1.05-0.257-1.949-0.292-2.591-0.128c-0.222,0.07-0.63,0.175-0.91,0.245c-0.385,0.105-0.49,0.175-0.49,0.385 c0,0.642-0.969,3.712-2.439,7.727c-0.338,0.899-0.84,2.288-1.132,3.093c-0.654,1.762-1.564,3.63-2.789,5.661 c-1.331,2.229-2.766,4.937-3.478,6.594c-0.794,1.821-1.039,2.311-2.311,4.552c-0.56,1.004-1.085,2.066-1.167,2.381 c-0.14,0.572-0.105,1.342,0.257,4.505c0.14,1.331,0.77,3.595,1.471,5.369c0.327,0.805,0.7,1.961,0.84,2.568 c0.14,0.607,0.432,1.844,0.654,2.743c0.514,2.113,0.665,3.268,0.677,5.135c0.012,1.155-0.035,1.692-0.198,2.218 c-0.56,1.879-1.646,3.151-3.385,3.98c-1.459,0.689-3.677,1.412-6.548,2.124c-2.428,0.607-4.108,0.864-7.178,1.074 c-0.992,0.07-2.649,0.268-3.677,0.432c-3.163,0.525-6.723,0.397-11.03-0.409c-0.992-0.187-2.183-0.408-2.626-0.479 c-1.05-0.175-2.019-0.654-2.358-1.167c-0.49-0.724-0.315-2.381,0.397-3.805c0.409-0.782,1.587-1.914,2.568-2.428 c1.424-0.747,1.786-0.794,6.046-0.899c4.937-0.117,4.867-0.105,7.82-2.043c0.49-0.327,1.05-0.689,1.261-0.817 c0.91-0.572,1.004-1.727,0.257-3.198c-0.479-0.957-2.031-3.466-4.26-6.886c-3.105-4.774-4.388-7.505-6.011-12.792 c-0.233-0.77-0.455-1.471-0.479-1.564c-0.023-0.093-0.07-0.14-0.093-0.117s-0.572,0.712-1.225,1.541 c-0.654,0.817-1.494,1.797-1.856,2.159c-0.91,0.91-3.315,2.778-4.459,3.455c-0.514,0.303-1.074,0.735-1.237,0.945 c-0.444,0.584-1.202,2.614-2.451,6.536c-0.619,1.926-1.424,4.342-1.797,5.369c-1.015,2.789-0.98,2.579-0.992,5.836 c-0.012,3.128-0.093,3.758-0.712,5.171c-0.409,0.934-0.689,1.272-1.704,2.019c-1.576,1.167-2.346,1.482-4.435,1.797 c-0.992,0.152-2.474,0.338-3.268,0.397c-0.805,0.07-1.984,0.21-2.614,0.315c-0.805,0.128-2.078,0.198-4.19,0.222 c-2.673,0.035-4.96,0.21-6.104,0.467c-0.14,0.035-1.214,0.163-2.393,0.292c-5.812,0.607-9.267,1.074-10.773,1.459 c-2.708,0.7-4.178,0.642-5.964-0.233c-1.249-0.619-1.832-1.459-1.972-2.836c-0.163-1.494,0.432-2.696,2.241-4.564 c0.77-0.805,1.225-1.167,2.229-1.739c0.805-0.455,1.529-0.782,2.019-0.887c1.424-0.327,5.381-0.992,6.629-1.12 c4.797-0.479,7.038-1.179,9.536-2.988c0.514-0.362,1.856-1.296,2.976-2.066c1.12-0.77,2.509-1.751,3.093-2.194 c1.704-1.272,2.941-2.941,3.478-4.68c0.385-1.272,0.409-1.459,0.292-2.334c-0.163-1.237-0.899-7.797-1.202-10.831 c-0.887-8.859-0.817-15.722,0.233-23.927c0.397-3.07,0.537-3.782,1.412-7.236c0.934-3.723,1.062-4.622,0.875-6.338 c-0.187-1.704-0.432-2.883-0.689-3.198c-0.105-0.14-0.572-0.689-1.027-1.225c-2.241-2.638-6.945-9.057-9.15-12.512 c-2.229-3.49-5.964-10.434-7.038-13.084c-0.584-1.424-1.564-4.318-2.649-7.762c-1.389-4.388-3.396-8.952-4.914-11.146 c-0.315-0.455-1.179-1.529-1.926-2.393c-1.821-2.124-2.93-3.618-4.248-5.719c-0.607-0.98-2.183-3.408-3.501-5.416 c-2.766-4.178-2.953-4.505-3.618-6.081c-0.268-0.642-0.899-2.113-1.401-3.268c-0.502-1.155-1.015-2.369-1.144-2.708 c-0.28-0.735-3.466-5.567-4.855-7.353c-0.56-0.724-1.564-1.856-2.218-2.509c-1.214-1.214-1.844-1.704-6.664-5.17 c-6.629-4.762-8.625-6.723-13.761-13.597c-3.478-4.657-4.178-5.766-6.303-9.991c-1.681-3.361-1.879-3.618-5.241-6.968 c-3.035-3.046-3.98-4.132-4.972-5.742c-0.677-1.109-1.506-1.926-2.369-2.334c-0.945-0.444-3.07-1.226-3.513-1.307 c-0.21-0.035-1.097,0.035-1.961,0.14c-1.984,0.257-2.941,0.257-3.571,0c-0.619-0.245-1.167-0.852-1.272-1.412 c-0.14-0.759,0.023-2.159,0.397-3.256c0.619-1.867,0.63-1.809-0.794-4.015l-0.642-0.992v-1.05c0-1.634,0.467-2.451,1.972-3.478 c0.373-0.257,1.179-0.934,1.809-1.506c1.307-1.226,1.926-1.552,3.408-1.867c1.214-0.257,2.323-0.222,3.77,0.093 c0.584,0.128,1.027,0.152,1.576,0.093c1.436-0.175,1.902-0.128,2.731,0.257c1.459,0.689,2.416,1.832,3.607,4.365 c0.794,1.646,1.249,2.253,2.054,2.661c0.619,0.315,1.529,1.155,1.914,1.762c0.187,0.292,0.49,1.05,0.689,1.692 c0.502,1.657,0.98,3,1.331,3.677c0.35,0.677,0.84,1.19,2.836,2.953c2.101,1.856,3.922,4.167,6.349,8.018 c3.653,5.801,6.594,8.975,9.956,10.714c0.957,0.49,1.716,0.444,3.163-0.233c0.642-0.303,1.856-0.77,2.684-1.039 c2.556-0.817,3.233-1.202,4.995-2.895c1.319-1.272,1.692-1.552,2.719-2.101c0.654-0.338,1.272-0.677,1.366-0.759 c0.152-0.105,0.058-0.362-0.7-1.867c-0.747-1.459-1.015-1.867-1.716-2.603c-0.829-0.852-0.852-0.864-1.809-1.085 c-1.261-0.303-1.401-0.385-1.692-1.027c-0.21-0.467-0.257-0.77-0.257-1.937l-0.012-1.389l-0.455-0.21 c-3.093-1.401-3.443-1.634-3.443-2.299c0.012-0.969,0.735-1.961,2.089-2.848c1.155-0.759,1.576-0.864,2.626-0.712 c1.062,0.152,2.043,0.619,3.852,1.821c2.579,1.727,5.824,5.276,8.298,9.104c0.315,0.49,0.619,0.899,0.665,0.899 c0.058,0,0.093-0.117,0.093-0.268c0-0.152,0.152-0.77,0.35-1.366c0.502-1.599,0.479-2.358-0.128-4.33 c-0.549-1.797-0.642-1.984-1.214-2.673c-0.584-0.689-1.074-1.716-1.366-2.789c-0.175-0.689-0.233-1.226-0.222-2.428 c0.012-1.284-0.023-1.611-0.222-2.043c-0.327-0.724-0.315-1.774,0.035-2.439c0.397-0.747,1.611-1.622,3.105-2.229 c1.366-0.56,2.556-1.284,3.84-2.358c0.479-0.397,1.132-0.934,1.459-1.214c0.747-0.607,2.124-1.331,3.058-1.611 c0.455-0.128,1.12-0.21,1.914-0.21l1.214-0.012l-0.07-1.307c-0.035-0.817,0-1.797,0.105-2.626c0.082-0.724,0.163-1.331,0.163-1.342 c0-0.093,0.408-0.385,0.537-0.385c0.093,0,0.385,0.198,0.665,0.455c0.268,0.245,1.12,0.875,1.891,1.389 c0.969,0.654,1.774,1.307,2.626,2.171c0.665,0.677,1.249,1.307,1.307,1.389c0.07,0.128,0.619,0.163,2.754,0.152l2.673-0.012 l0.502-0.35c0.268-0.187,0.63-0.56,0.794-0.817c1.716-2.708,2.754-3.84,4.937-5.381c1.494-1.074,3.665-2.428,4.365-2.743 C348.471,67.119,348.658,67.107,349.043,67.259L349.043,67.259z" transform="matrix(1, 0, 0, 1, 0, -5.684341886080802e-14)"/>
</svg>