<?xml version="1.0" encoding="utf-8"?>
<svg viewBox="387.852 14.5725 83.1139 176.1716" xmlns="http://www.w3.org/2000/svg">
  <path style="fill-rule:evenodd;clip-rule:evenodd;fill:#0F0B0D;" d="M429.296,14.777c-0.656,0.342-1.353,1.066-3.279,3.47 c-0.997,1.243-2.323,2.801-2.937,3.484c-0.628,0.669-1.544,1.749-2.036,2.391c-1.544,1.995-4.044,4.427-6.777,6.626 c-4.604,3.689-6.9,6.462-10.206,12.364c-1.872,3.334-2.377,4.536-2.76,6.544c-0.246,1.366-0.697,2.336-2.063,4.618 c-2.049,3.375-2.91,5.192-4.208,8.99c-1.366,3.976-2.705,7.473-4.358,11.326c-2.5,5.848-2.924,7.692-2.801,12.023 c0.123,3.962,1.462,14.004,2.432,18.116c0.533,2.295,1.148,3.921,2.555,6.695c2.896,5.711,2.91,5.82,2.76,13.116 c-0.055,2.282-0.014,2.732,0.314,4.645c0.383,2.159,0.56,2.924,1.585,6.353c0.82,2.76,1.134,3.593,2.637,7.173 c1.53,3.634,1.667,3.88,2.036,3.784c0.15-0.041,0.273,0.014,0.314,0.164c1.421,4.918,1.776,6.981,2.022,11.517 c0.109,2.377,0.123,3.416,0,4.399c-0.273,2.145-0.669,2.965-2.459,5.028c-1.066,1.23-1.79,2.473-2.131,3.662 c-0.109,0.41-0.26,1.639-0.342,2.732c-0.109,1.817-0.164,2.09-0.669,3.416c-1.312,3.402-1.257,6.421,0.123,8.102 c1.394,1.694,3.812,2.282,6.968,1.694c1.38-0.246,1.284-0.26,4.563,0.246c1.79,0.273,3.839,0.26,5.506-0.027 c0.724-0.123,1.544-0.205,1.803-0.205c0.792,0.041,3.703,0.437,4.645,0.642c2.118,0.451,4.386,0.751,7.514,1.025 c2.91,0.246,7.624,0.833,12.979,1.612c2.596,0.369,7.637,0.314,11.476-0.15c4.591-0.546,6.654-1.161,8.525-2.555 c0.424-0.301,1.148-0.669,1.626-0.82c1.079-0.342,2.254-1.093,3.293-2.131c1.407-1.407,1.981-2.528,2.637-5.178 c0.342-1.339,0.383-1.749,0.383-3.825c0-4.755-0.997-8.758-4.276-17.365c-1.639-4.276-2.213-5.984-2.773-8.32 c-0.506-2.049-0.533-2.582-0.273-5.192c0.232-2.309,0.137-4.973-0.246-7.104c-0.164-0.874-0.287-2.118-0.287-2.978 c0-2.705-0.642-4.877-2.61-8.853c-1.68-3.388-2.842-5.451-4.386-7.76c-2.049-3.047-3.689-5.766-4.181-6.913 c-0.26-0.615-0.997-3.17-1.667-5.807c-1.257-4.932-1.831-6.681-2.746-8.266c-1.189-2.036-2.405-3.498-6.23-7.473 c-1.202-1.23-2.282-2.473-2.405-2.746c-0.15-0.314-0.301-1.12-0.383-2.104c-0.178-2.118-0.533-3.825-1.271-6.134 c-0.642-1.981-0.902-3.17-0.902-4.03c0-0.287-0.055-0.56-0.137-0.601c-0.068-0.041-0.137-0.628-0.137-1.284 c0-1.025,0.041-1.243,0.273-1.448c0.26-0.232,0.328-0.232,1.803,0.082c1.202,0.246,1.995,0.314,3.525,0.314 c2.268,0.014,3.088-0.164,4.864-1.011c1.148-0.547,1.68-1.038,3.101-2.869c0.314-0.41,0.915-1.011,1.325-1.339 c1.776-1.407,2.446-2.09,2.801-2.828c0.328-0.656,0.369-0.861,0.314-1.803c-0.096-1.558-0.342-2.118-3.019-6.722 c-0.984-1.694-2.008-3.989-2.35-5.274c-0.123-0.451-0.273-1.612-0.342-2.596c-0.068-0.97-0.232-2.268-0.355-2.869 c-0.437-2.241-1.79-4.263-4.782-7.173c-1.243-1.202-1.899-1.721-2.801-2.213c-0.656-0.355-1.216-0.751-1.271-0.874 c-0.191-0.506-0.041-1.079,0.628-2.336c0.669-1.284,2.159-5.164,2.159-5.643c0-0.273-0.56-0.82-0.847-0.82 c-0.465,0-2.705,0.738-3.784,1.243c-1.202,0.56-2.008,1.107-3.361,2.295c-0.451,0.396-0.929,0.697-1.093,0.697 c-0.656,0-0.669-0.109-0.779-5.793c-0.096-5.738-0.219-6.845-0.847-8.211c-0.219-0.492-0.465-0.806-0.751-0.943 C429.965,14.504,429.815,14.504,429.296,14.777z M465.297,185.612c0,0.068-0.068,0.137-0.15,0.137 c-0.068,0-0.096-0.068-0.055-0.137c0.041-0.082,0.109-0.137,0.15-0.137C465.269,185.475,465.297,185.53,465.297,185.612z" transform="matrix(1, 0, 0, 1, 0, -5.684341886080802e-14)"/>
</svg>