<?xml version="1.0" encoding="utf-8"?>
<svg viewBox="0 0 239.5871 176.7992" xmlns="http://www.w3.org/2000/svg">
  <path style="fill-rule:evenodd;clip-rule:evenodd;fill:#0F0B0D;" d="M39.176,54.422c1.905,0.261,5.102,1.837,7.268,3.583 c1.44,1.157,4.297,3.957,5.59,5.488c3.798,4.467,6.123,9.105,6.916,13.753c0.442,2.653,0.465,5.42,0.068,8.991 c-0.386,3.413-0.34,6.996,0.113,9.048c0.499,2.313,1.859,5.374,3.662,8.288c2.46,3.946,3.231,4.66,7.109,6.599 c1.928,0.964,2.925,1.576,7.699,4.694c1.621,1.066,3.299,2.143,3.742,2.392c0.431,0.261,1.633,1.009,2.665,1.667 c2.37,1.508,3.492,2.075,5.034,2.562c0.748,0.238,1.349,0.499,1.531,0.669c0.283,0.261,0.476,0.295,3.753,0.624 c7.937,0.794,11.747,0.907,14.91,0.408c5.556-0.862,7.37-1.02,10.409-0.93c3.526,0.102,10.012,0.952,15.896,2.064 c5.182,0.986,12.914,2.132,17.121,2.551c1.304,0.125,3.424,0.363,4.705,0.51s2.982,0.329,3.798,0.397 c0.805,0.068,2.415,0.215,3.572,0.34c4.184,0.431,4.411,0.42,7.54-0.17c2.744-0.522,4.104-0.51,9.604,0.113 c2.268,0.249,9.445,1.327,11.316,1.701c3.742,0.737,9.388,0.714,16.1-0.068c3.243-0.374,3.549-0.465,7.54-2.211 c3.73-1.621,5.431-2.075,7.778-2.086c1.757,0,5.987-0.442,7.189-0.76c1.383-0.351,1.791-0.624,4.014-2.801 c2.302-2.245,3.662-3.322,5.068-4.048c1.157-0.59,1.871-0.692,2.256-0.329c0.147,0.136,0.306,0.397,0.34,0.567 c0.091,0.42-0.295,2.132-0.964,4.263c-0.714,2.245-0.907,3.277-0.907,4.751c0,0.873,0.045,1.202,0.159,1.304 c0.091,0.068,0.329,0.624,0.51,1.225c0.408,1.293,1.134,2.63,2.313,4.241c0.93,1.281,1.701,2.109,3.061,3.299 c1.372,1.213,1.735,1.984,2.404,5.193c0.385,1.814,0.42,1.916,1.406,3.855c1.122,2.2,1.61,3.39,1.894,4.581 c0.317,1.349,0.057,2.914-0.669,3.991c-0.306,0.465-0.522,0.624-1.474,1.088c-1.27,0.624-1.723,1.043-2.687,2.46 c-1.043,1.531-1.689,1.848-4.093,2.03c-0.918,0.068-1.814,0.102-1.984,0.068c-0.181-0.034-1.531-0.113-2.993-0.17 c-3.98-0.159-5.499-0.351-8.334-1.032c-1.542-0.374-2.109-0.397-3.197-0.159c-0.975,0.227-4.15,1.349-4.751,1.689 c-0.646,0.363-0.975,1.032-1.043,2.109c-0.068,1.179,0.17,2.268,1.111,5.159c1.009,3.095,1.247,4.309,1.474,7.563 c0.057,0.918,0.113,2.154,0.113,2.744c0,1.315,0.283,3.311,0.59,4.127c0.125,0.329,0.703,1.304,1.281,2.166 c0.578,0.862,1.474,2.245,1.984,3.084c2.075,3.39,3.288,4.864,5.238,6.349c1.996,1.519,3.197,2.551,4.139,3.549 c1.02,1.066,3.163,3.742,4.513,5.624c1.417,1.984,3.957,5.374,4.569,6.123c0.952,1.145,2.562,2.733,4.161,4.127 c2.449,2.12,2.71,2.324,4.002,3.084c2.676,1.587,3.129,1.905,4.388,3.163c1.304,1.304,1.769,1.996,2.052,3.05 c0.193,0.692,0.193,1.009,0.034,1.565c-0.159,0.601-1.191,1.678-2.018,2.12c-1.871,0.986-4.989,1.825-6.826,1.825 c-1.247,0-2.971-0.272-3.674-0.567c-2.177-0.93-5.556-4.354-8.628-8.753c-1.962-2.789-3.39-4.263-8.311-8.583 c-2.12-1.871-3.968-3.118-6.361-4.32c-1.644-0.828-2.914-1.599-4.921-2.993c-2.245-1.565-3.685-2.789-6.644-5.681 c-1.281-1.259-2.812-2.653-3.402-3.118c-0.59-0.465-1.531-1.225-2.075-1.678c-1.417-1.179-2.585-1.701-6.202-2.733 c-5.465-1.576-6.916-2.007-8.277-2.449c-1.916-0.612-3.436-0.918-5.59-1.077c-2.052-0.159-3.424-0.034-5.567,0.499 c-2.959,0.748-7.018,3.027-9.048,5.08c-1.122,1.145-1.814,2.132-3.231,4.683c-1.145,2.052-1.712,3.333-2.075,4.649 c-0.283,1.009-1.791,5.136-2.438,6.633c-0.227,0.533-0.771,1.655-1.213,2.494c-1.417,2.733-2.46,5.783-2.551,7.54 c-0.057,0.85-0.034,0.93,0.272,1.372c0.17,0.249,0.873,0.964,1.565,1.587c3.095,2.778,3.504,3.322,3.504,4.637 c0,1.168-0.374,1.735-1.429,2.211c-1.27,0.556-4.637,0.771-6.372,0.397c-0.986-0.204-3.764-1.304-4.705-1.859 c-1.565-0.93-2.562-1.95-3.186-3.231c-0.624-1.327-0.726-1.928-0.726-4.49c0-2.075,0.034-2.494,0.317-3.912 c0.17-0.873,0.431-2.381,0.578-3.345c0.249-1.644,0.771-3.628,1.293-4.966c0.351-0.896,0.556-1.78,0.748-3.367 c0.102-0.816,0.442-2.676,0.748-4.139c0.816-3.9,0.907-5.329,0.544-8.844c-0.057-0.59-0.181-2.041-0.272-3.22 c-0.102-1.485-0.204-2.177-0.306-2.245c-0.351-0.238-1.519,0-3.356,0.692c-3.447,1.293-5.408,1.508-15.329,1.712 c-3.526,0.079-5.907,0.181-7.517,0.34c-1.293,0.125-3.311,0.272-4.479,0.34c-2.982,0.159-4.944,0.42-6.701,0.862 c-2.744,0.692-4.297,1.542-8.084,4.388c-4.932,3.696-8.458,7.007-11.497,10.76c-2.177,2.699-2.347,3.039-2.358,4.683l-0.011,1.134 l0.68,1.27c0.703,1.338,2.222,3.47,3.197,4.479c0.839,0.884,5.204,4.966,5.987,5.612c1.009,0.828,1.111,0.873,3.073,1.497 c3.299,1.054,5.522,2.381,6.213,3.742c0.295,0.567,0.635,1.973,0.635,2.619c0,1.485-0.986,2.041-4.309,2.449 c-1.678,0.204-2.279,0.181-5.272-0.17c-2.2-0.261-3.265-0.499-4.875-1.088c-2.937-1.054-5.125-2.483-7.257-4.751 c-0.771-0.816-1.996-2.2-2.721-3.073c-2.098-2.494-3.934-4.388-5.783-5.964c-0.941-0.794-2.188-1.859-2.778-2.37 s-1.825-1.531-2.733-2.268c-2.449-1.984-2.744-2.415-2.733-4.025c0.011-1.485,0.703-3.061,2.302-5.193 c1.463-1.973,1.962-3.129,2.154-5.057c0.193-1.871,0.068-3.946-0.397-6.191c-0.873-4.252-1.202-5.612-1.372-5.612 c-0.374,0-3.243,1.848-4.354,2.801c-1.293,1.111-2.381,1.825-3.345,2.2c-1.168,0.454-3.367,0.952-5.567,1.281 c-6.826,1.02-8.583,1.349-11.078,2.064c-2.676,0.771-5,1.791-6.894,3.05c-1.542,1.032-2.619,2.234-6.576,7.427 c-1.395,1.825-3.787,6.247-4.433,8.164c-0.329,0.998-0.363,1.247-0.442,3.288c-0.102,2.415-0.329,3.549-1.02,5.272 c-0.578,1.463-1.882,3.22-2.767,3.742c-1.032,0.601-2.823,0.873-4.138,0.624c-0.862-0.159-2.869-0.952-3.492-1.372 c-0.884-0.601-3.05-2.551-3.333-3.005c-0.578-0.941-0.102-2.313,1.678-4.887c1.61-2.336,1.848-2.755,2.12-3.9 c0.091-0.34,0.374-1.383,0.635-2.313c0.261-0.941,0.646-2.336,0.85-3.118c0.204-0.782,0.703-2.517,1.111-3.855 c0.839-2.778,1.553-5.363,1.882-6.86c0.839-3.742,1.44-6.021,1.996-7.653c1.088-3.152,2.075-5,3.209-6.021 c1.315-1.179,4.603-2.517,8.073-3.277c3.56-0.782,5.919-1.996,9.207-4.751c1.837-1.542,4.978-5.488,6.032-7.585 c0.533-1.054,1.395-3.322,1.825-4.785c0.782-2.71,1.077-4.547,1.304-8.209c0.159-2.438,0.34-3.481,0.896-5.046 c0.612-1.735,1.417-3.163,3.039-5.306c3.209-4.286,3.821-5.885,3.379-8.878c-0.238-1.621-1.032-3.866-1.916-5.42 c-0.34-0.601-0.714-1.304-0.816-1.553c-0.51-1.225-2.154-3.027-4.513-4.921c-0.805-0.646-1.723-1.406-2.041-1.689 c-0.317-0.283-1.168-0.952-1.882-1.485c-0.714-0.522-1.814-1.383-2.438-1.894s-1.463-1.191-1.871-1.519 c-1.02-0.794-3.333-2.971-4.082-3.832c-3.458-4.002-7.12-11.123-8.492-16.52c-0.635-2.506-0.737-3.47-0.748-6.633 c0-2.903,0.011-3.073,0.363-5.046c0.476-2.642,0.714-5.068,0.794-8.141c0.068-2.653-0.023-3.81-0.442-5.182 c-0.669-2.188-1.905-4.32-4.184-7.166c-1.769-2.211-2.971-4.717-2.971-6.213C34.539,55.25,36.546,54.06,39.176,54.422 L39.176,54.422z" transform="matrix(1, 0, 0, 1, -19.200315475463867, -24.40082931518553)"/>
</svg>