<?xml version="1.0" encoding="UTF-8" standalone="no" ?>
      <!DOCTYPE svg PUBLIC "-//W3C//DTD SVG 1.1//EN" "http://www.w3.org/Graphics/SVG/1.1/DTD/svg11.dtd">
      <svg
        xmlns="http://www.w3.org/2000/svg"
        xmlns:xlink="http://www.w3.org/1999/xlink"
        version="1.1"
        width="488"
        height="316"
        viewBox="0 0 500 340"
        xml:space="preserve"
      >
        <g transform="matrix(2.16 0 0 2.16 260.12 182.07)" id="OBJECTS">
          <path
            style="
              stroke: none;
              stroke-width: 1;
              stroke-dasharray: none;
              stroke-linecap: butt;
              stroke-dashoffset: 0;
              stroke-linejoin: miter;
              stroke-miterlimit: 4;
              fill: rgb(15, 11, 13);
              fill-rule: evenodd;
              opacity: 1;
            "
            vector-effect="non-scaling-stroke"
            transform=" translate(-142.1, -414.18)"
            d="M 78.26 341.084 C 78.81 341.383 78.893 341.801 78.81 343.796 C 78.583 348.993 76.898 355.278 75.13 357.489 C 74.85499999999999 357.835 74.664 358.14599999999996 74.69999999999999 358.18199999999996 C 74.73599999999999 358.21799999999996 74.68799999999999 358.50499999999994 74.59199999999998 358.80299999999994 C 74.25699999999999 359.87799999999993 74.18599999999998 360.39199999999994 74.06599999999999 362.2679999999999 C 73.80299999999998 366.7369999999999 74.74699999999999 372.6269999999999 76.121 375.04099999999994 C 76.58699999999999 375.87699999999995 77.55499999999999 376.9169999999999 78.19999999999999 377.2989999999999 C 78.88099999999999 377.6929999999999 79.86099999999999 377.80099999999993 80.50599999999999 377.5379999999999 C 80.78099999999999 377.4419999999999 81.97599999999998 377.1079999999999 83.16999999999999 376.7969999999999 C 84.37699999999998 376.49799999999993 86.085 376.0199999999999 86.96999999999998 375.7339999999999 C 90.26799999999999 374.65899999999993 92.13199999999999 374.2879999999999 98.12999999999998 373.46399999999994 C 104.03199999999998 372.65199999999993 107.43799999999999 372.0659999999999 116.43499999999997 370.29799999999994 C 121.65599999999998 369.2699999999999 126.08899999999997 368.56499999999994 129.92499999999998 368.14699999999993 C 138.85 367.1789999999999 143.84499999999997 366.98799999999994 149.04199999999997 367.41799999999995 C 153.04499999999996 367.75299999999993 157.20299999999997 368.19499999999994 159.91499999999996 368.57699999999994 C 166.16399999999996 369.44899999999996 173.87099999999995 371.38499999999993 179.91599999999997 373.5709999999999 C 182.16199999999998 374.3949999999999 189.96399999999997 377.83699999999993 194.44499999999996 379.9989999999999 C 203.02399999999997 384.1449999999999 208.77099999999996 386.3789999999999 215.71299999999997 388.2789999999999 C 219.17799999999997 389.2229999999999 224.37499999999997 389.4139999999999 228.73699999999997 388.7449999999999 C 231.56899999999996 388.3149999999999 233.43299999999996 387.5739999999999 236.56299999999996 385.6269999999999 C 241.71299999999997 382.4369999999999 243.85099999999997 381.2899999999999 245.81099999999995 380.6329999999999 C 248.03299999999996 379.87999999999994 249.43099999999995 379.8209999999999 251.06799999999996 380.39399999999995 C 252.70499999999996 380.967 253.91199999999995 382.00699999999995 254.58099999999996 383.417 C 254.96299999999997 384.21799999999996 255.02299999999997 384.47999999999996 255.05899999999997 385.36499999999995 C 255.14299999999997 387.31299999999993 254.55699999999996 388.7819999999999 252.96799999999996 390.57399999999996 C 250.51899999999995 393.32199999999995 248.73799999999997 394.768 246.32499999999996 395.91499999999996 C 244.05499999999995 396.98999999999995 239.32299999999995 398.28099999999995 235.55999999999995 398.842 C 234.26999999999995 399.03299999999996 233.63599999999994 399.2 232.69199999999995 399.58299999999997 C 229.15499999999994 401.041 227.35099999999994 401.602 223.71899999999994 402.37899999999996 C 219.88399999999993 403.191 215.89299999999994 403.44199999999995 207.99499999999995 403.359 C 203.16799999999995 403.311 202.42699999999994 403.275 201.25599999999994 403.048 C 199.10499999999993 402.654 195.73599999999993 401.686 192.13999999999993 400.455 C 190.27599999999993 399.822 188.74699999999993 399.32 188.72299999999993 399.344 C 188.71099999999993 399.368 188.74699999999993 400.539 188.80699999999993 401.949 C 189.03399999999993 406.57300000000004 188.66399999999993 408.604 186.71599999999992 413.491 C 185.50899999999993 416.526 184.32599999999994 418.772 182.6059999999999 421.341 C 180.9929999999999 423.743 180.5989999999999 425.081 180.5989999999999 428.187 C 180.5989999999999 430.135 180.6349999999999 430.505 180.9809999999999 432.166 C 181.44699999999992 434.364 182.0089999999999 436.169 182.88099999999991 438.164 C 183.74099999999993 440.135 185.4619999999999 443.469 186.96699999999993 446.038 C 188.31699999999992 448.332 188.60399999999993 448.96500000000003 189.04599999999994 450.495 C 189.72699999999995 452.837 189.89399999999995 453.984 189.90599999999995 456.206 C 189.90599999999995 458.082 189.86999999999995 458.452 189.57099999999994 459.79 C 189.03299999999993 462.108 188.04199999999994 464.976 187.00199999999995 467.17400000000004 C 185.57999999999996 470.17300000000006 185.19799999999995 471.36800000000005 184.70799999999994 474.48600000000005 C 184.21799999999993 477.5210000000001 183.60899999999995 479.07400000000007 182.49799999999993 480.07800000000003 C 181.43499999999995 481.05800000000005 179.74999999999994 481.73900000000003 176.94199999999992 482.348 C 175.50799999999992 482.647 175.30499999999992 482.671 171.86399999999992 482.671 C 168.57799999999992 482.659 168.1839999999999 482.647 167.14399999999992 482.396 C 165.73399999999992 482.07300000000004 164.57499999999993 481.5 164.10899999999992 480.902 C 163.82199999999992 480.544 163.73899999999992 480.305 163.70299999999992 479.731 C 163.65499999999992 479.098 163.69099999999992 478.919 164.04899999999992 478.214 C 164.8379999999999 476.673 166.39099999999993 475.37 168.0759999999999 474.84499999999997 C 168.49399999999991 474.714 169.3069999999999 474.546 169.8919999999999 474.47499999999997 C 170.47699999999992 474.40399999999994 171.0149999999999 474.272 171.0749999999999 474.2 C 171.1469999999999 474.116 171.4209999999999 473.28 171.6839999999999 472.348 C 171.95899999999992 471.404 172.55599999999993 469.66 173.0219999999999 468.46500000000003 C 174.0019999999999 465.932 174.4199999999999 464.42600000000004 174.5159999999999 463.01700000000005 C 174.5639999999999 462.15700000000004 174.5399999999999 461.89400000000006 174.3129999999999 461.29600000000005 C 174.0139999999999 460.50700000000006 173.9429999999999 460.43600000000004 170.6209999999999 457.34100000000007 C 168.5539999999999 455.4170000000001 167.7059999999999 454.74800000000005 162.4839999999999 450.90100000000007 C 161.1579999999999 449.92100000000005 160.3809999999999 449.25200000000007 160.01099999999988 448.77400000000006 C 159.71199999999988 448.39200000000005 159.43699999999987 448.0810000000001 159.41399999999987 448.0810000000001 C 159.17499999999987 448.0810000000001 158.78099999999986 449.7780000000001 158.05199999999988 453.9480000000001 C 157.2509999999999 458.5360000000001 157.17999999999986 458.8470000000001 156.33099999999988 461.4990000000001 C 155.08799999999988 465.35800000000006 154.40699999999987 466.63700000000006 152.3159999999999 469.06200000000007 C 150.7629999999999 470.87800000000004 149.1979999999999 472.1570000000001 145.33799999999988 474.7250000000001 C 141.44299999999987 477.3180000000001 140.48699999999988 478.0940000000001 139.5669999999999 479.3850000000001 C 136.9979999999999 482.9930000000001 135.2419999999999 484.9410000000001 134.01099999999988 485.5380000000001 C 133.34199999999987 485.8610000000001 133.19899999999987 485.8840000000001 130.95199999999988 485.96800000000013 C 129.4349999999999 486.02800000000013 127.88099999999989 486.1710000000001 126.57899999999988 486.38600000000014 C 124.73899999999988 486.6730000000001 124.33299999999988 486.6970000000001 122.21799999999988 486.6370000000001 C 120.10299999999988 486.5770000000001 119.76899999999988 486.5410000000001 118.54999999999987 486.2070000000001 C 116.69799999999987 485.7050000000001 115.83799999999987 485.2390000000001 115.46699999999987 484.5220000000001 C 115.07299999999987 483.7690000000001 115.25199999999987 483.1840000000001 116.36299999999987 481.5350000000001 C 117.29499999999987 480.16100000000006 117.74899999999987 479.6470000000001 118.84799999999987 478.7750000000001 C 119.98299999999988 477.8670000000001 121.15399999999987 477.31700000000006 123.06599999999987 476.8150000000001 C 125.65899999999988 476.1220000000001 127.51099999999988 475.2020000000001 128.47899999999987 474.1390000000001 C 128.72999999999988 473.85200000000015 129.33899999999988 472.99200000000013 129.82899999999987 472.22700000000015 C 130.33099999999988 471.46200000000016 131.38199999999986 469.84900000000016 132.17099999999988 468.63100000000014 C 134.2619999999999 465.44100000000014 136.31699999999987 461.34300000000013 137.08199999999988 458.8220000000001 C 137.9179999999999 456.0860000000001 137.7989999999999 454.81900000000013 136.0779999999999 447.7220000000001 C 134.8709999999999 442.74000000000007 134.8349999999999 442.4770000000001 134.8349999999999 438.8210000000001 C 134.8349999999999 435.84600000000006 134.8469999999999 435.6670000000001 135.1459999999999 434.60300000000007 L 135.4449999999999 433.5040000000001 L 134.65599999999992 433.5640000000001 C 131.47799999999992 433.83900000000006 129.41099999999992 434.1260000000001 127.11699999999992 434.60300000000007 C 123.50899999999992 435.34400000000005 117.70199999999991 436.50300000000004 116.72199999999992 436.6700000000001 C 116.10099999999993 436.7780000000001 114.66699999999992 437.1000000000001 113.55599999999993 437.37500000000006 C 111.04699999999993 438.02000000000004 106.43499999999993 439.04800000000006 104.83399999999993 439.31100000000004 C 103.85399999999993 439.478 102.71899999999994 439.514 98.50099999999993 439.514 C 95.66899999999994 439.526 92.81399999999994 439.466 92.15699999999994 439.406 C 91.48799999999994 439.334 90.77099999999994 439.298 90.55599999999994 439.334 C 90.18599999999994 439.382 90.17399999999994 439.406 90.24499999999993 439.86 C 90.31699999999994 440.314 89.73099999999994 446.312 89.25299999999993 450.052 C 89.12199999999993 451.03200000000004 88.90699999999993 452.68100000000004 88.77499999999993 453.696 C 88.41699999999993 456.444 88.27299999999994 459.132 88.16599999999994 465.107 C 88.06999999999994 470.47200000000004 88.02299999999994 471.045 87.50899999999994 473.889 C 87.41299999999994 474.439 87.28199999999994 475.622 87.20999999999994 476.51800000000003 C 86.87499999999994 480.927 86.70799999999994 481.942 86.12299999999993 483.209 C 85.64499999999994 484.237 85.10699999999993 484.762 83.97199999999994 485.288 C 81.78499999999994 486.30400000000003 79.88599999999994 486.495 73.58899999999994 486.339 C 69.76599999999995 486.255 69.43099999999994 486.21999999999997 68.90499999999994 485.993 C 67.87699999999994 485.527 67.72199999999994 484.60699999999997 68.34299999999995 482.64799999999997 C 69.13199999999995 480.19899999999996 69.76499999999994 479.195 72.08299999999994 476.758 C 74.62799999999994 474.094 74.99799999999995 473.078 74.61599999999994 469.888 C 74.11399999999995 465.62199999999996 73.43299999999994 462.49199999999996 72.39399999999995 459.63599999999997 C 72.04799999999994 458.70399999999995 71.54599999999995 457.17499999999995 71.25899999999994 456.231 C 70.98399999999994 455.287 70.69699999999995 454.463 70.63799999999995 454.403 C 70.57799999999995 454.343 70.11199999999995 455.024 69.45499999999994 456.171 C 68.14099999999993 458.501 67.42399999999994 459.59999999999997 65.75099999999995 461.834 C 62.763999999999946 465.837 60.696999999999946 468.955 58.68999999999995 472.432 C 58.080999999999946 473.507 57.37599999999995 474.69 57.12499999999995 475.06100000000004 C 56.44399999999995 476.112 55.05799999999995 477.487 53.68399999999995 478.502 C 52.26199999999995 479.553 51.843999999999944 480.091 50.72099999999995 482.349 C 50.35099999999995 483.09 49.87299999999995 483.89 49.657999999999944 484.14099999999996 C 49.44299999999994 484.37999999999994 49.072999999999944 484.83399999999995 48.821999999999946 485.145 C 47.65099999999995 486.603 44.818999999999946 487.188 39.047999999999945 487.128 C 37.087999999999944 487.116 36.00099999999995 487.164 34.98599999999995 487.30699999999996 C 33.53999999999995 487.50999999999993 33.10999999999995 487.47399999999993 32.52499999999995 487.092 C 32.13099999999995 486.829 31.77199999999995 486.20799999999997 31.77199999999995 485.78999999999996 C 31.77199999999995 484.90599999999995 33.40899999999995 482.61199999999997 35.18899999999995 480.99899999999997 C 36.63499999999995 479.68499999999995 36.96899999999995 479.44599999999997 38.80899999999995 478.35799999999995 C 39.69299999999995 477.84399999999994 40.660999999999945 477.18699999999995 40.971999999999944 476.9119999999999 C 41.81999999999994 476.14699999999993 42.36999999999995 474.95199999999994 43.42099999999994 471.6189999999999 C 43.922999999999945 470.0059999999999 44.72299999999994 467.61599999999993 45.212999999999944 466.3019999999999 C 46.825999999999944 461.8689999999999 48.30799999999994 456.0739999999999 49.023999999999944 451.42599999999993 C 49.632999999999946 447.44699999999995 49.71699999999994 446.27599999999995 49.776999999999944 440.58899999999994 L 49.83699999999995 435.17599999999993 L 49.17999999999995 434.07699999999994 C 48.35599999999995 432.6789999999999 46.76599999999995 429.79999999999995 46.07299999999995 428.41399999999993 C 44.16099999999995 424.59099999999995 41.56899999999995 416.9679999999999 40.68399999999995 412.5349999999999 C 40.205999999999946 410.1449999999999 40.050999999999945 409.00999999999993 39.65599999999995 405.1269999999999 C 38.97499999999995 398.5079999999999 38.29399999999995 394.5169999999999 37.09899999999995 390.1319999999999 C 36.27499999999995 387.14499999999987 35.855999999999945 385.1379999999999 35.306999999999945 381.6369999999999 C 34.529999999999944 376.6899999999999 34.23199999999994 373.76299999999986 34.03999999999994 369.1029999999999 C 33.943999999999946 366.7009999999999 33.88499999999994 366.1279999999999 33.62199999999994 365.1599999999999 C 33.203999999999944 363.6189999999999 32.904999999999944 363.0329999999999 31.841999999999942 361.63499999999993 C 30.312999999999942 359.63999999999993 29.141999999999943 356.9149999999999 29.141999999999943 355.3739999999999 C 29.141999999999943 354.75299999999993 29.499999999999943 352.9719999999999 29.798999999999943 352.0759999999999 C 29.906999999999943 351.74099999999993 30.312999999999942 350.8089999999999 30.694999999999943 349.9849999999999 C 31.435999999999943 348.3839999999999 31.745999999999942 347.4759999999999 32.11699999999994 345.7079999999999 C 32.24799999999994 345.09899999999993 32.48699999999994 344.3579999999999 32.63099999999994 344.0469999999999 C 33.27599999999995 342.7689999999999 34.04099999999994 342.6969999999999 36.907999999999944 343.6289999999999 C 39.91899999999995 344.6089999999999 40.49199999999995 344.7279999999999 42.10499999999995 344.7399999999999 C 43.41899999999995 344.7399999999999 43.657999999999944 344.7039999999999 45.03199999999995 344.2979999999999 C 48.078999999999944 343.4019999999999 49.76299999999995 343.1629999999999 51.59199999999995 343.4019999999999 C 52.60799999999995 343.53299999999984 55.641999999999946 344.2619999999999 57.458999999999946 344.8119999999999 C 59.645999999999944 345.4689999999999 60.92399999999995 345.6959999999999 62.78799999999995 345.7679999999999 L 64.60399999999994 345.8399999999999 L 65.59599999999995 345.12299999999993 C 67.74699999999994 343.56999999999994 69.68199999999995 342.81699999999995 74.64099999999995 341.57399999999996 C 77.484 340.857 77.782 340.821 78.26 341.084 L 78.26 341.084 z"
            stroke-linecap="round"
          />
        </g>
      </svg>