<svg id="visual" viewBox="0 0 2000 300" width="2000" height="300" xmlns="http://www.w3.org/2000/svg" xmlns:xlink="http://www.w3.org/1999/xlink" version="1.1">
<path d="M0 114L17.5 105.7C35 97.3 70 80.7 105.2 77.7C140.3 74.7 175.7 85.3 210.8 97.7C246 110 281 124 316 131C351 138 386 138 421 140.8C456 143.7 491 149.3 526.2 149.8C561.3 150.3 596.7 145.7 631.8 135C667 124.3 702 107.7 737 109.3C772 111 807 131 842 139.3C877 147.7 912 144.3 947.2 137.2C982.3 130 1017.7 119 1052.8 109.2C1088 99.3 1123 90.7 1158 84C1193 77.3 1228 72.7 1263 68.5C1298 64.3 1333 60.7 1368.2 71.7C1403.3 82.7 1438.7 108.3 1473.8 115.8C1509 123.3 1544 112.7 1579 99.3C1614 86 1649 70 1684 66.5C1719 63 1754 72 1789.2 84.2C1824.3 96.3 1859.7 111.7 1894.8 116.8C1930 122 1965 117 1982.5 114.5L2000 112L2000 301L1982.5 301C1965 301 1930 301 1894.8 301C1859.7 301 1824.3 301 1789.2 301C1754 301 1719 301 1684 301C1649 301 1614 301 1579 301C1544 301 1509 301 1473.8 301C1438.7 301 1403.3 301 1368.2 301C1333 301 1298 301 1263 301C1228 301 1193 301 1158 301C1123 301 1088 301 1052.8 301C1017.7 301 982.3 301 947.2 301C912 301 877 301 842 301C807 301 772 301 737 301C702 301 667 301 631.8 301C596.7 301 561.3 301 526.2 301C491 301 456 301 421 301C386 301 351 301 316 301C281 301 246 301 210.8 301C175.7 301 140.3 301 105.2 301C70 301 35 301 17.5 301L0 301Z" fill="#451355"></path>
<path d="M0 204L17.5 195.8C35 187.7 70 171.3 105.2 162.8C140.3 154.3 175.7 153.7 210.8 161.3C246 169 281 185 316 180.7C351 176.3 386 151.7 421 147C456 142.3 491 157.7 526.2 166.5C561.3 175.3 596.7 177.7 631.8 173.7C667 169.7 702 159.3 737 152C772 144.7 807 140.3 842 142C877 143.7 912 151.3 947.2 149.2C982.3 147 1017.7 135 1052.8 143.2C1088 151.3 1123 179.7 1158 191.2C1193 202.7 1228 197.3 1263 193.5C1298 189.7 1333 187.3 1368.2 176.5C1403.3 165.7 1438.7 146.3 1473.8 149.3C1509 152.3 1544 177.7 1579 186.8C1614 196 1649 189 1684 186.2C1719 183.3 1754 184.7 1789.2 176.7C1824.3 168.7 1859.7 151.3 1894.8 147C1930 142.7 1965 151.3 1982.5 155.7L2000 160L2000 301L1982.5 301C1965 301 1930 301 1894.8 301C1859.7 301 1824.3 301 1789.2 301C1754 301 1719 301 1684 301C1649 301 1614 301 1579 301C1544 301 1509 301 1473.8 301C1438.7 301 1403.3 301 1368.2 301C1333 301 1298 301 1263 301C1228 301 1193 301 1158 301C1123 301 1088 301 1052.8 301C1017.7 301 982.3 301 947.2 301C912 301 877 301 842 301C807 301 772 301 737 301C702 301 667 301 631.8 301C596.7 301 561.3 301 526.2 301C491 301 456 301 421 301C386 301 351 301 316 301C281 301 246 301 210.8 301C175.7 301 140.3 301 105.2 301C70 301 35 301 17.5 301L0 301Z" fill="#9f3782"></path>
<path d="M0 199L17.5 200.2C35 201.3 70 203.7 105.2 209C140.3 214.3 175.7 222.7 210.8 222.7C246 222.7 281 214.3 316 215.2C351 216 386 226 421 223.5C456 221 491 206 526.2 202.5C561.3 199 596.7 207 631.8 213.5C667 220 702 225 737 229.2C772 233.3 807 236.7 842 241.5C877 246.3 912 252.7 947.2 246.5C982.3 240.3 1017.7 221.7 1052.8 221.2C1088 220.7 1123 238.3 1158 240C1193 241.7 1228 227.3 1263 225.2C1298 223 1333 233 1368.2 235.5C1403.3 238 1438.7 233 1473.8 225.2C1509 217.3 1544 206.7 1579 207.7C1614 208.7 1649 221.3 1684 232C1719 242.7 1754 251.3 1789.2 251C1824.3 250.7 1859.7 241.3 1894.8 239.8C1930 238.3 1965 244.7 1982.5 247.8L2000 251L2000 301L1982.5 301C1965 301 1930 301 1894.8 301C1859.7 301 1824.3 301 1789.2 301C1754 301 1719 301 1684 301C1649 301 1614 301 1579 301C1544 301 1509 301 1473.8 301C1438.7 301 1403.3 301 1368.2 301C1333 301 1298 301 1263 301C1228 301 1193 301 1158 301C1123 301 1088 301 1052.8 301C1017.7 301 982.3 301 947.2 301C912 301 877 301 842 301C807 301 772 301 737 301C702 301 667 301 631.8 301C596.7 301 561.3 301 526.2 301C491 301 456 301 421 301C386 301 351 301 316 301C281 301 246 301 210.8 301C175.7 301 140.3 301 105.2 301C70 301 35 301 17.5 301L0 301Z" fill="#ff64a3"></path>
</svg>